#!OML:ASF E:\motion texture\Top Level 1\Subject 1\Session 1\male.ASF
:FULLY-SPECIFIED
:DEGREES
341
root 9.93072 17.6385 4.99821 585.784 -85.7416 -586.83
lowerback 0.268018 -1.9943 -2.1734
upperback -2.03306 -2.69512 0.61237
thorax -2.10642 -1.3077 1.89856
lowerneck -20.2648 -2.19217 -5.20841
upperneck 18.7087 -2.79913 5.60173
head 9.39738 -1.07213 2.40935
rclavicle 2.7482e-014 -5.56597e-015
rhumerus -46.7204 -4.2604 -76.3546
rradius 44.9638
rwrist 2.27282
rhand -10.4726 -8.50169
rfingers 7.12502
rthumb 15.5285 -37.8982
lclavicle 2.7482e-014 -5.56597e-015
lhumerus -20.9136 -3.52122 87.323
lradius 44.6508
lwrist -0.889175
lhand -11.5661 11.3096
lfingers 7.12502
lthumb 14.4751 40.7847
rfemur -41.375 -6.84445 12.4371
rtibia 97.4844
rfoot 374.93 0.969947
rtoes 18.0426
lfemur -9.58127 -0.597946 -26.878
ltibia 27.1838
lfoot 707.032 -3.26571
ltoes 7.53568
342
root 9.7961 17.6721 4.98722 592.459 -85.999 -593.747
lowerback 0.664769 -2.29867 -2.51079
upperback -1.98274 -3.11277 0.678868
thorax -2.23672 -1.50725 2.17845
lowerneck -20.3339 -2.06372 -5.12695
upperneck 18.7687 -2.61471 5.47296
head 9.41635 -0.993651 2.3775
rclavicle -2.13694e-014 -4.77083e-015
rhumerus -47.8136 -4.86407 -75.46
rradius 44.1167
rwrist 2.05156
rhand -10.4658 -8.56454
rfingers 7.12502
rthumb 15.5351 -37.9605
lclavicle -2.13694e-014 -4.77083e-015
lhumerus -19.0563 -3.62745 87.1036
lradius 44.7961
lwrist -0.874613
lhand -11.7422 11.1655
lfingers 7.12502
lthumb 14.3054 40.6527
rfemur -44.1947 -7.30878 12.5955
rtibia 98.4986
rfoot 374.767 0.484488
rtoes 18.9769
lfemur -8.41016 -0.9885 -27.0729
ltibia 26.422
lfoot 707.049 -3.46534
ltoes 7.36277
343
root 9.66116 17.7029 4.975 599.521 -86.2523 -601.064
lowerback 1.07779 -2.59631 -2.797
upperback -1.91857 -3.52281 0.76678
thorax -2.35823 -1.70364 2.45554
lowerneck -20.4081 -1.9415 -5.04197
upperneck 18.7894 -2.43771 5.34564
head 9.42343 -0.917958 2.34412
rclavicle 1.00883e-014 7.95139e-015
rhumerus -48.9077 -5.35618 -74.5777
rradius 43.3778
rwrist 1.92412
rhand -10.4122 -8.56108
rfingers 7.12502
rthumb 15.5867 -37.953
lclavicle 1.00883e-014 7.95139e-015
lhumerus -17.2571 -3.70209 86.8733
lradius 45.0157
lwrist -0.864919
lhand -11.8885 11.0373
lfingers 7.12502
lthumb 14.1644 40.5344
rfemur -46.9105 -7.72813 12.8123
rtibia 99.2351
rfoot 374.598 -0.0383714
rtoes 19.9397
lfemur -7.25963 -1.3801 -27.1901
ltibia 25.7221
lfoot 707.067 -3.65444
ltoes 7.14224
344
root 9.5256 17.731 4.962 607.033 -86.485 -608.821
lowerback 1.48179 -2.88084 -3.03332
upperback -1.85025 -3.91582 0.86949
thorax -2.46843 -1.89239 2.72248
lowerneck -20.4813 -1.82776 -4.95778
upperneck 18.7778 -2.27306 5.22884
head 9.4203 -0.846766 2.31247
rclavicle -2.08227e-014 -1.19271e-014
rhumerus -49.9965 -5.75156 -73.7128
rradius 42.7204
rwrist 1.94777
rhand -10.3459 -8.49698
rfingers 7.12502
rthumb 15.6505 -37.884
lclavicle -2.08227e-014 -1.19271e-014
lhumerus -15.5104 -3.76877 86.632
lradius 45.2898
lwrist -0.835767
lhand -11.9852 10.9326
lfingers 7.12502
lthumb 14.0713 40.4362
rfemur -49.5424 -8.09411 13.0683
rtibia 99.71
rfoot 374.452 -0.606688
rtoes 20.8909
lfemur -6.15401 -1.783 -27.2494
ltibia 25.0877
lfoot 707.085 -3.80733
ltoes 6.8703
345
root 9.38938 17.7566 4.94843 615.041 -86.6762 -617.039
lowerback 1.85142 -3.14894 -3.23111
upperback -1.78667 -4.28656 0.979245
thorax -2.56329 -2.07092 2.97585
lowerneck -20.5476 -1.72424 -4.87814
upperneck 18.7392 -2.12453 5.12986
head 9.40805 -0.781393 2.28524
rclavicle 9.44227e-016 6.36111e-015
rhumerus -51.074 -6.05944 -72.8746
rradius 42.1234
rwrist 2.13136
rhand -10.1987 -8.39438
rfingers 7.12502
rthumb 15.7923 -37.7702
lclavicle 9.44227e-016 6.36111e-015
lhumerus -13.8064 -3.84541 86.3785
lradius 45.5973
lwrist -0.779849
lhand -12.0159 10.8823
lfingers 7.12502
lthumb 14.0417 40.388
rfemur -52.1114 -8.40257 13.3396
rtibia 99.9382
rfoot 374.343 -1.2215
rtoes 21.7308
lfemur -5.11746 -2.2007 -27.2754
ltibia 24.5165
lfoot 707.103 -3.91307
ltoes 6.55195
346
root 9.2522 17.7801 4.93443 623.259 -86.8053 -625.414
lowerback 2.16928 -3.39437 -3.40494
upperback -1.73842 -4.62634 1.09024
thorax -2.64499 -2.23459 3.21603
lowerneck -20.6036 -1.63321 -4.80631
upperneck 18.6873 -1.99565 5.05038
head 9.39102 -0.723665 2.26321
rclavicle 4.91495e-014 3.18055e-015
rhumerus -52.1394 -6.2812 -72.0729
rradius 41.5635
rwrist 2.43016
rhand -10.0464 -8.25573
rfingers 7.12502
rthumb 15.9389 -37.6199
lclavicle 4.91495e-014 3.18055e-015
lhumerus -12.1549 -3.94813 86.1122
lradius 45.926
lwrist -0.683748
lhand -12.012 10.8209
lfingers 7.12502
lthumb 14.0454 40.3263
rfemur -54.6341 -8.64578 13.6016
rtibia 99.9294
rfoot 374.303 -1.89141
rtoes 22.4437
lfemur -4.16788 -2.62299 -27.2894
ltibia 24.0049
lfoot 707.115 -3.96915
ltoes 6.18315
347
root 9.11424 17.8019 4.91984 631.359 -86.8617 -633.611
lowerback 2.42668 -3.61616 -3.57315
upperback -1.70715 -4.93388 1.19745
thorax -2.71027 -2.38253 3.44655
lowerneck -20.6527 -1.55415 -4.73954
upperneck 18.6282 -1.8865 4.98957
head 9.37178 -0.67349 2.24567
rclavicle -4.68635e-014 7.95139e-016
rhumerus -53.1789 -6.4195 -71.3237
rradius 41.0309
rwrist 2.77523
rhand -9.89885 -8.14246
rfingers 7.12502
rthumb 16.081 -37.4952
lclavicle -4.68635e-014 7.95139e-016
lhumerus -10.5409 -4.08283 85.8298
lradius 46.2534
lwrist -0.563893
lhand -11.9942 10.7344
lfingers 7.12502
lthumb 14.0626 40.2387
rfemur -57.1152 -8.82834 13.8372
rtibia 99.698
rfoot 374.339 -2.60631
rtoes 22.9621
lfemur -3.3175 -3.04015 -27.306
ltibia 23.5576
lfoot 707.117 -3.98794
ltoes 5.76677
348
root 8.9752 17.8221 4.9047 638.684 -86.8503 -640.981
lowerback 2.63144 -3.81007 -3.74331
upperback -1.68995 -5.20375 1.29681
thorax -2.76138 -2.51189 3.66681
lowerneck -20.7013 -1.4878 -4.67794
upperneck 18.5688 -1.79804 4.94751
head 9.35384 -0.631257 2.23263
rclavicle -9.54166e-015 -4.77083e-015
rhumerus -54.1884 -6.482 -70.6393
rradius 40.512
rwrist 3.07885
rhand -9.77872 -8.03803
rfingers 7.12502
rthumb 16.1967 -37.3814
lclavicle -9.54166e-015 -4.77083e-015
lhumerus -8.95292 -4.24573 85.5316
lradius 46.5589
lwrist -0.436632
lhand -11.9796 10.6253
lfingers 7.12502
lthumb 14.0767 40.1285
rfemur -59.5357 -8.93729 14.0333
rtibia 99.2572
rfoot 374.459 -3.36206
rtoes 23.3383
lfemur -2.5403 -3.43559 -27.3314
ltibia 23.1463
lfoot 707.118 -3.97558
ltoes 5.30101
349
root 8.83548 17.841 4.88882 644.983 -86.7895 -647.282
lowerback 2.79518 -3.97909 -3.91883
upperback -1.68639 -5.44028 1.38852
thorax -2.80433 -2.62461 3.87931
lowerneck -20.7437 -1.43119 -4.62355
upperneck 18.5086 -1.72634 4.92675
head 9.33585 -0.595081 2.22585
rclavicle -7.90169e-015 -2.38542e-015
rhumerus -55.1576 -6.4766 -70.0256
rradius 39.9986
rwrist 3.29354
rhand -9.65916 -8.02653
rfingers 7.12502
rthumb 16.3118 -37.3605
lclavicle -7.90169e-015 -2.38542e-015
lhumerus -7.38892 -4.4288 85.2165
lradius 46.8323
lwrist -0.322807
lhand -11.9647 10.5185
lfingers 7.12502
lthumb 14.091 40.0208
rfemur -61.8788 -8.97838 14.1909
rtibia 98.6248
rfoot 374.66 -4.12161
rtoes 23.5643
lfemur -1.83056 -3.79511 -27.3582
ltibia 22.7732
lfoot 707.113 -3.95466
ltoes 4.79959
350
root 8.69475 17.8589 4.87234 650.052 -86.7012 -652.332
lowerback 2.93379 -4.1238 -4.09742
upperback -1.6878 -5.64445 1.47049
thorax -2.83996 -2.72127 4.08111
lowerneck -20.7759 -1.38197 -4.57542
upperneck 18.445 -1.66843 4.92705
head 9.31591 -0.563589 2.22545
rclavicle 1.78906e-014 4.77083e-015
rhumerus -56.0808 -6.41568 -69.4858
rradius 39.4894
rwrist 3.40314
rhand -9.52788 -8.08236
rfingers 7.12502
rthumb 16.4382 -37.4059
lclavicle 1.78906e-014 4.77083e-015
lhumerus -5.8553 -4.62662 84.8822
lradius 47.0761
lwrist -0.232325
lhand -11.9636 10.4258
lfingers 7.12502
lthumb 14.092 39.928
rfemur -64.1088 -8.94861 14.3087
rtibia 97.817
rfoot 374.906 -4.86781
rtoes 23.7026
lfemur -1.14901 -4.11894 -27.3862
ltibia 22.4147
lfoot 707.107 -3.92345
ltoes 4.27394
351
root 8.55309 17.8758 4.85542 653.905 -86.602 -656.169
lowerback 3.07588 -4.24638 -4.28107
upperback -1.69097 -5.82021 1.54368
thorax -2.88085 -2.80345 4.27655
lowerneck -20.8012 -1.33686 -4.53445
upperneck 18.3819 -1.61828 4.94368
head 9.29554 -0.534539 2.23081
rclavicle -3.43897e-014 3.18055e-015
rhumerus -56.9556 -6.30447 -69.0167
rradius 38.9817
rwrist 3.42515
rhand -9.39764 -8.16549
rfingers 7.12502
rthumb 16.5636 -37.4786
lclavicle -3.43897e-014 3.18055e-015
lhumerus -4.35973 -4.82191 84.5327
lradius 47.2863
lwrist -0.17898
lhand -11.9665 10.348
lfingers 7.12502
lthumb 14.0893 39.8503
rfemur -66.1908 -8.84975 14.3849
rtibia 96.8503
rfoot 375.211 -5.56241
rtoes 23.8051
lfemur -0.46683 -4.40318 -27.4171
ltibia 22.0625
lfoot 707.104 -3.88497
ltoes 3.72052
